# xmcd
#
# Track frame offsets:
#	300
#	15702
#	36596
#	53375
#	73200
#	89814
#	106282
#	123595
#	142641
#	159473
#	177758
#
# Disc length: 2618 seconds
#
# Revision: 1
# Processed by: cddbd v1.5.2PL0 Copyright (c) Steve Scherf et al.
# Submitted via: audiograbber 1.83.01
#
DISCID=940a360b
DTITLE=Various Artist - Street April 09 CD2
DYEAR=2009
DGENRE=R&B
TTITLE0=Ironik Ft Chipmunk and Elton John - Tiny Dancer (Hold Me Closer)(Radio Ed
TTITLE0=it)
TTITLE1=Kanye West Ft Mr Hudson - Paranoid
TTITLE2=Brick and Lace - Bad To Di Bone (Demolition Crew Mix)
TTITLE3=Vagabond Ft Mr Versatile - Sweat (Until The Morning)(Toddla T Remix)
TTITLE4=A.R. Rahman and The Pussycat Dolls - Jai Ho (You Are My Destiny)(RF Mix)
TTITLE5=Smoove and Turrell - Squeeze Me (Featurecast Remix)
TTITLE6=Brahim - Take You Home
TTITLE7=Laura Izibor - Don't Stay (Daniel 2Dark Remix)
TTITLE8=Jamie Foxx Ft Marsha Ambrosius - Freakin Me (Album Version)
TTITLE9=Young Nate - I Wonder
TTITLE10=Dirty Burning Aces Ft Tone Mastahz - Toast It Up (Dirty Version)
EXTD=
EXTT0=
EXTT1=
EXTT2=
EXTT3=
EXTT4=
EXTT5=
EXTT6=
EXTT7=
EXTT8=
EXTT9=
EXTT10=
PLAYORDER=
